<svg fill="none" xmlns="http://www.w3.org/2000/svg" viewBox="8 5 40 46">
  <!-- Outer teardrop pin — dark fill, inverts to white -->
  <path d="M48 25c0 15.363-16.805 24.167-19.606 25.528a.876.876 0 0 1-.788 0C24.806 49.168 8 40.363 8 25 8 13.954 16.954 5 28 5s20 8.954 20 20Z" fill="#1a1a1a"/>
  <!-- Inner compass/octagon — white fill, inverts to dark (visible detail against white pin) -->
  <path d="m18.277 25.035c-.137-.514-.206-.772-.206-1.035 0-.263.069-.52.206-1.035l.785-2.93c.138-.514.207-.772.339-1 .131-.228.32-.416.697-.793l2.144-2.144c.377-.377.565-.565.793-.697.228-.132.486-.2 1-.339l2.93-.785c.514-.137.772-.206 1.035-.206.263 0 .52.069 1.035.206l2.93.785c.514.138.772.207 1 .339.228.132.416.32.793.697l2.144 2.144c.377.377.566.565.697.793.132.228.2.486.339 1l.785 2.93c.138.514.206.772.206 1.035 0 .263-.069.52-.206 1.035l-.785 2.93c-.138.514-.207.772-.339 1-.131.228-.32.416-.697.793l-2.144 2.144c-.377.377-.565.566-.793.697-.228.132-.486.2-1 .339l-2.93.785c-.514.138-.772.206-1.035.206-.263 0-.52-.069-1.035-.206l-2.93-.785c-.514-.138-.772-.207-1-.339-.228-.131-.416-.32-.793-.697l-2.144-2.144c-.377-.377-.566-.565-.697-.793-.132-.228-.2-.486-.339-1l-.785-2.93Z" fill="#ffffff"/>
  <!-- Center dot — dark fill, inverts to white -->
  <circle cx="28" cy="24" r="3" fill="#1a1a1a"/>
</svg>
