<svg width="25" height="25" viewBox="0 0 25 25" fill="none" xmlns="http://www.w3.org/2000/svg">
  <path d="M3.37972 2.95361L4.62623 1.70711C5.01675 1.31658 5.64992 1.31658 6.04044 1.70711L9.95956 5.62623C10.3501 6.01675 10.3501 6.64992 9.95956 7.04044L8.36233 8.63767C8.14595 8.85405 8.09231 9.18461 8.22916 9.45831C9.81137 12.6227 12.3773 15.1886 15.5417 16.7708C15.8154 16.9077 16.1459 16.8541 16.3623 16.6377L17.9596 15.0404C18.3501 14.6499 18.9833 14.6499 19.3738 15.0404L23.2929 18.9596C23.6834 19.3501 23.6834 19.9833 23.2929 20.3738L22.0861 21.5806C20.0902 23.5764 16.9732 23.9113 14.5989 22.385L11.3215 20.2781C8.47557 18.4486 6.0683 16.0137 4.27132 13.1471L2.53864 10.3831C1.05308 8.01325 1.40198 4.93135 3.37972 2.95361Z" stroke="#08C25D" stroke-width="2"/>
</svg>
