<svg fill="none" xmlns="http://www.w3.org/2000/svg" viewBox="0 0 300 56"><path fill-rule="evenodd" clip-rule="evenodd" d="M265.007 2.13c.1 3.046.1 3.044-1.078 4.593l-1.072 1.408H248.006l-.753-1.174c-.718-1.12-.843-1.175-2.706-1.179l-1.953-.004 1.62 1.37c.891.753 2.219 1.681 2.953 2.062 4.667 2.425 9.601 6.395 10.995 8.846 2.116 3.722 2.366 13.916.451 18.41-1.158 2.72-5.814 6.698-11.113 9.497-.917.484-2.342 1.488-3.167 2.23l-1.5 1.352 1.834-.004c1.726-.003 1.877-.071 2.586-1.177l.753-1.174H262.857l1.072 1.408c1.182 1.553 1.173 1.513 1.078 4.736-.065 2.214-.045 2.273.761 2.273.455 0 .918-.24 1.03-.533.363-.956.192-2.988-.309-3.656-.269-.36-.489-.776-.489-.926 0-.15 5.737-.287 12.75-.306 7.013-.019 13.125-.155 13.583-.303.556-.18.639-.28.25-.303-.966-.056-.678-.667 1.386-2.942 1.083-1.194 2.578-3.338 3.323-4.765 1.301-2.494 1.354-2.548 1.364-1.394.015 1.707-.895 4.64-1.905 6.136-.473.702-1.474 1.647-2.223 2.1-.749.454-1.196.826-.994.828.7.006 2.61-1.526 3.699-2.969 1.595-2.112 3.195-8.278 2.315-8.921-.281-.206-.272-.323.035-.449.32-.13.417-2.36.417-9.542 0-7.167-.098-9.417-.417-9.567-.284-.134-.301-.253-.052-.375.252-.124.275-.774.074-2.104-.468-3.102-1.542-5.938-2.817-7.443-1.084-1.28-2.688-2.417-3.355-2.38-.146.009.288.31.966.673.677.36 1.629 1.183 2.115 1.826 1.041 1.378 2.157 4.777 2.142 6.522-.01 1.201-.045 1.166-1.364-1.362-.745-1.427-2.24-3.572-3.323-4.765-2.064-2.275-2.352-2.887-1.386-2.942.389-.023.306-.124-.25-.303-.458-.148-6.57-.285-13.583-.303-7.013-.019-12.75-.152-12.75-.296s.234-.599.519-1.01c.326-.47.481-1.28.417-2.18-.093-1.292-.194-1.44-1.051-1.54L264.937 0l.07 2.13ZM0 27.657V50.89h102.167c101.944 0 102.166-.001 102.166-.673 0-.599.223-.674 1.989-.674h1.989l.094-3.602.095-3.602 2.5-.538c2.312-.497 2.508-.606 2.605-1.448l.106-.91h-9.378V16.211h9.334v-.974c0-1.108-.034-1.127-3.084-1.732l-2.25-.447V5.774h-2c-1.777 0-2-.074-2-.673 0-.672-.222-.673-102.166-.673H0v23.23ZM209.406 8.176l.094 3.781 2.167.48c1.191.265 2.354.635 2.583.822.617.506.604 28.3-.014 28.818-.236.199-1.174.526-2.083.727-3.062.678-2.82.3-2.82 4.404v3.681h13.816c13.773 0 13.825-.003 16.417-.832 1.869-.599 3.069-1.24 4.267-2.283.917-.797 2.942-2.183 4.5-3.079 5.021-2.885 8.689-6.063 9.848-8.529 1.828-3.891 1.725-13.446-.187-17.261-1.187-2.37-5.919-6.254-10.827-8.888-.917-.491-2.52-1.616-3.563-2.498-3.405-2.878-3.382-2.874-19.865-3.008l-14.428-.117.095 3.782Zm57.761 2.388c.733.262 4.146 1.066 7.583 1.786 3.438.72 6.25 1.43 6.25 1.576 0 .378.023.382-6.191-.884-3.103-.632-5.679-1.112-5.725-1.067-.045.045.099.979.321 2.075.269 1.331.403 5.852.403 13.608 0 7.757-.134 12.278-.403 13.608-.222 1.097-.362 2.035-.311 2.087.051.051 2.619-.43 5.707-1.067 6.182-1.277 6.199-1.28 6.199-.883 0 .153-2.737.85-6.083 1.549s-7.121 1.634-8.39 2.078c-1.268.444-2.38.733-2.471.64-.091-.091.23-.962.714-1.935 1.849-3.72 2.054-5.285 2.059-15.74.005-10.471-.322-13.117-2.016-16.334-1.251-2.378-1.244-2.381 2.354-1.097Zm15.5 3.627c0 .185-.3.337-.667.337-.367 0-.667-.152-.667-.337 0-.185.3-.336.667-.336.367 0 .667.151.667.336Zm1.666.337c0 .185-.3.337-.666.337-.367 0-.667-.152-.667-.337 0-.185.3-.337.667-.337.366 0 .666.152.666.337Zm1.334.337c0 .185-.225.336-.5.336s-.5-.151-.5-.336c0-.185.225-.337.5-.337s.5.152.5.337Zm1.833.336c.113.185-.103.337-.48.337-.378 0-.687-.152-.687-.337 0-.185.216-.336.481-.336.264 0 .573.151.686.336Zm1.5.337c0 .185-.225.337-.5.337s-.5-.152-.5-.337c0-.185.225-.337.5-.337s.5.152.5.337Zm1.667.337c0 .185-.309.336-.687.336-.377 0-.593-.151-.48-.336.113-.185.422-.337.686-.337.265 0 .481.152.481.337Zm1.333.336c0 .186-.225.337-.5.337s-.5-.151-.5-.337c0-.185.225-.336.5-.336s.5.151.5.336Zm1.667.337c0 .185-.15.337-.334.337a.336.336 0 0 1-.333-.337c0-.185.15-.337.333-.337.184 0 .334.152.334.337Zm1.666.337c0 .185-.225.336-.5.336s-.5-.151-.5-.336c0-.186.225-.337.5-.337s.5.152.5.337Zm1.334.336c0 .186-.15.337-.334.337a.336.336 0 0 1-.333-.337c0-.185.15-.336.333-.336.184 0 .334.151.334.336Zm1.833.337c.113.185-.037.337-.333.337-.297 0-.447-.152-.334-.337.114-.185.264-.337.334-.337s.22.152.333.337Zm0 20.2c.113.186-.028.337-.314.337-.285 0-.519-.151-.519-.336 0-.185.141-.337.313-.337.173 0 .407.152.52.337Zm-1.833.337c0 .186-.15.337-.334.337a.336.336 0 0 1-.333-.337c0-.185.15-.336.333-.336.184 0 .334.151.334.336Zm-1.334.337c0 .185-.225.337-.5.337s-.5-.152-.5-.337c0-.185.225-.337.5-.337s.5.152.5.337Zm-1.666.337c0 .185-.234.336-.52.336-.286 0-.427-.151-.314-.336.114-.185.347-.337.52-.337.173 0 .314.151.314.337Zm-1.667.336c0 .186-.225.337-.5.337s-.5-.151-.5-.337c0-.185.225-.336.5-.336s.5.151.5.336Zm-1.5.337c.113.185-.112.337-.5.337s-.613-.152-.5-.337c.113-.185.338-.337.5-.337.162 0 .387.152.5.337Zm-1.5.337c0 .185-.225.336-.5.336s-.5-.151-.5-.336c0-.185.225-.337.5-.337s.5.152.5.337Zm-1.667.336c0 .186-.225.337-.5.337s-.5-.151-.5-.337c0-.185.225-.336.5-.336s.5.151.5.336Zm-1.666.337c0 .185-.225.337-.5.337s-.5-.152-.5-.337c0-.185.225-.337.5-.337s.5.152.5.337Zm-1.334.337c0 .185-.3.336-.666.336-.367 0-.667-.151-.667-.336 0-.185.3-.337.667-.337.366 0 .666.152.666.337Zm-1.666.336c0 .186-.3.337-.667.337-.367 0-.667-.151-.667-.337 0-.185.3-.336.667-.336.367 0 .667.151.667.336Z" fill="currentColor"/></svg>
