<svg width="24" height="24" viewBox="0 0 24 24" fill="none" xmlns="http://www.w3.org/2000/svg">
  <path fill-rule="evenodd" clip-rule="evenodd"
        d="M0 12C0 5.3832 5.3832 0 12 0C18.6168 0 24 5.3832 24 12C24 18.6168 18.6168 24 12 24C9.61446 24 7.38927 23.3003 5.51887 22.0953L10.1042 17.5093C11.2908 17.9978 12.5954 18.1241 13.8537 17.8725C15.112 17.6209 16.2677 17.0025 17.1752 16.0953C18.0821 15.1876 18.7002 14.0319 18.9519 12.7737C19.1048 12.009 19.1181 11.2272 18.9956 10.4652C18.8822 9.76057 18.0328 9.58051 17.5281 10.0851L15.4064 12.2062C15.0158 12.5967 14.3827 12.5966 13.9922 12.2061L11.8711 10.0844C11.4807 9.69384 11.4807 9.06075 11.8712 8.67026L13.9919 6.54958C14.4966 6.04483 14.3165 5.1953 13.6117 5.08217C12.85 4.9599 12.0685 4.97355 11.3042 5.12668C10.0463 5.37872 8.89099 5.99734 7.98391 6.90464C7.07682 7.81194 6.45848 8.96735 6.20673 10.2254C5.95499 11.4834 6.0811 12.7878 6.5692 13.9743L1.96655 18.5762C0.723696 16.6863 0 14.4261 0 12Z"
        fill="currentColor"/>
</svg>
